<?xml version="1.0" standalone="no"?><!DOCTYPE svg PUBLIC "-//W3C//DTD SVG 1.1//EN" "http://www.w3.org/Graphics/SVG/1.1/DTD/svg11.dtd"><svg class="icon" width="200px" height="200.00px" viewBox="0 0 1024 1024" version="1.1" xmlns="http://www.w3.org/2000/svg"><path d="M142.165333 372.565333S113.834667 0 517.802667 0c396.629333 0 364.032 382.634667 364.032 382.634667zM148.650667 526.165333a288.768 288.768 0 0 0 98.133333 181.589334c56.490667 48.981333 285.354667 20.48 285.354667 20.48s208.213333 34.133333 258.730666-10.922667a262.144 262.144 0 0 0 84.309334-201.045333z" fill="#FF556A" /><path d="M598.186667 682.666667l-85.333334 1.024-85.333333-1.024s17.066667 79.36-37.376 100.522666c0 0 6.997333 74.410667 121.685333 74.410667s122.709333-74.410667 122.709334-74.410667C580.266667 762.538667 598.186667 682.666667 598.186667 682.666667z" fill="#FFEDE1" /><path d="M518.485333 758.101333a182.784 182.784 0 0 0 80.725334-17.066666 139.946667 139.946667 0 0 1-1.024-58.368l-85.333334 1.024-85.333333-1.024a136.533333 136.533333 0 0 1-1.536 59.733333 197.461333 197.461333 0 0 0 92.501333 15.701333z" fill="#FFCFAE" /><path d="M98.986667 439.978667a112.469333 108.885333 0 1 0 224.938666 0 112.469333 108.885333 0 1 0-224.938666 0Z" fill="#FFEDE1" /><path d="M708.096 439.978667a109.909333 108.885333 0 1 0 219.818667 0 109.909333 108.885333 0 1 0-219.818667 0Z" fill="#FFEDE1" /><path d="M153.429333 439.978667a46.933333 45.397333 0 1 0 93.866667 0 46.933333 45.397333 0 1 0-93.866667 0Z" fill="#FFCFAE" /><path d="M779.605333 439.978667a46.933333 45.397333 0 1 0 93.866667 0 46.933333 45.397333 0 1 0-93.866667 0Z" fill="#FFCFAE" /><path d="M227.328 274.602667s-85.333333 170.666667-21.162667 309.418666c86.528 189.269333 529.066667 190.293333 617.301334-5.802666 61.269333-136.533333-32.256-305.493333-32.256-305.493334L512 213.333333z" fill="#FFEDE1" /><path d="M643.242667 443.733333l20.821333-18.944a34.133333 34.133333 0 0 0-28.16-15.36 36.693333 36.693333 0 1 0 34.133333 40.106667zM398.677333 443.733333l20.821334-18.944a34.133333 34.133333 0 0 0-28.16-15.36 36.693333 36.693333 0 1 0 34.133333 40.106667z" fill="#302B28" /><path d="M487.936 530.261333a25.429333 15.36 0 1 0 50.858667 0 25.429333 15.36 0 1 0-50.858667 0Z" fill="#FFCFAE" /><path d="M486.570667 612.693333a30.890667 26.794667 90 1 0 53.589333 0 30.890667 26.794667 90 1 0-53.589333 0Z" fill="#FF4545" /><path d="M734.890667 546.133333a8.533333 8.533333 0 0 1-7.509334-4.608l-8.533333-17.066666a8.533333 8.533333 0 1 1 15.189333-7.850667l8.533334 17.066667a8.533333 8.533333 0 0 1-3.754667 11.434666 8.362667 8.362667 0 0 1-3.925333 1.024zM779.776 546.133333a8.533333 8.533333 0 0 1-7.509333-4.608l-8.533334-17.066666a8.533333 8.533333 0 1 1 15.189334-7.850667l8.533333 17.066667a8.533333 8.533333 0 0 1-3.754667 11.434666 8.362667 8.362667 0 0 1-3.925333 1.024zM292.010667 546.133333a8.362667 8.362667 0 0 1-3.925334-1.024 8.533333 8.533333 0 0 1-3.754666-11.434666l8.533333-17.066667a8.533333 8.533333 0 1 1 15.189333 7.850667l-8.533333 17.066666a8.533333 8.533333 0 0 1-7.509333 4.608zM247.125333 546.133333a8.362667 8.362667 0 0 1-3.925333-1.024 8.533333 8.533333 0 0 1-3.754667-11.434666l8.533334-17.066667a8.533333 8.533333 0 1 1 15.189333 7.850667l-8.533333 17.066666a8.533333 8.533333 0 0 1-7.509334 4.608z" fill="#FF4545" /><path d="M779.264 938.666667l-25.088-69.632A132.778667 132.778667 0 0 0 631.466667 781.312c-4.437333 38.912-55.808 69.802667-119.466667 69.802667s-114.346667-30.72-119.466667-69.802667a132.778667 132.778667 0 0 0-119.466666 87.552L247.637333 938.666667a32.768 32.768 0 0 0 13.653334 39.082666c30.72 18.773333 101.034667 46.250667 252.074666 46.250667s221.866667-27.477333 252.074667-46.592a32.768 32.768 0 0 0 13.824-38.741333z" fill="#FFA1D5" /><path d="M498.346667 627.370667a15.018667 11.946667 0 1 0 30.037333 0 15.018667 11.946667 0 1 0-30.037333 0Z" fill="#FF9999" /><path d="M204.8 331.264s186.88 1.536 303.445333-99.328c0 0 99.157333 98.816 311.466667 99.328 0 0 34.133333-174.592-308.736-174.592S204.8 331.264 204.8 331.264z" fill="#FF556A" /><path d="M786.773333 729.6m-42.666666 0a42.666667 42.666667 0 1 0 85.333333 0 42.666667 42.666667 0 1 0-85.333333 0Z" fill="#FF556A" /><path d="M833.706667 768m-36.181334 0a36.181333 36.181333 0 1 0 72.362667 0 36.181333 36.181333 0 1 0-72.362667 0Z" fill="#FF556A" /><path d="M840.874667 784.042667l39.424 73.557333 52.394666-70.314667-81.066666-17.066666-10.752 13.824z" fill="#FF556A" /><path d="M237.226667 729.6m-42.666667 0a42.666667 42.666667 0 1 0 85.333333 0 42.666667 42.666667 0 1 0-85.333333 0Z" fill="#FF556A" /><path d="M190.293333 768m-36.181333 0a36.181333 36.181333 0 1 0 72.362667 0 36.181333 36.181333 0 1 0-72.362667 0Z" fill="#FF556A" /><path d="M183.125333 784.042667l-39.424 73.557333-52.394666-70.314667 81.066666-17.066666 10.752 13.824z" fill="#FF556A" /><path d="M287.061333 243.882667c0 12.8-24.746667 32.768-38.229333 27.136s-35.84-59.562667-25.429333-67.072 63.488 23.04 63.658666 39.936z" fill="#FFA1D5" /></svg>