<?xml version="1.0" standalone="no"?><!DOCTYPE svg PUBLIC "-//W3C//DTD SVG 1.1//EN" "http://www.w3.org/Graphics/SVG/1.1/DTD/svg11.dtd"><svg class="icon" width="200px" height="200.00px" viewBox="0 0 1024 1024" version="1.1" xmlns="http://www.w3.org/2000/svg"><path d="M250.37925 98.173144A147.279 147.279 0 0 0 119.483545 99.538419C51.219814 135.206218 28.522123 276.000164 28.522123 276.000164l204.791194-85.329664zM773.62075 98.173144a147.279 147.279 0 0 1 130.895705 1.365275c68.263731 35.49714 90.961422 176.291086 90.961422 176.291086l-204.791194-85.329664z" fill="#FF556A" /><path d="M598.182961 682.681343l-85.329664 1.023956-85.329665-1.023956s17.065933 79.356588-37.374392 100.518345c0 0 6.997032 74.407467 121.680101 74.407467s122.704057-74.407467 122.704057-74.407467C580.263731 762.549909 598.182961 682.681343 598.182961 682.681343z" fill="#FFEDE1" /><path d="M824.647889 84.179079a145.401748 145.401748 0 0 0-51.197798 13.994065l17.065933 92.497356 109.22197 45.56604a379.717006 379.717006 0 0 0-75.090105-152.057461zM136.549478 230.775442l96.59318-40.275601 17.065932-92.497356A139.940649 139.940649 0 0 0 210.103648 85.373694 386.372719 386.372719 0 0 0 136.549478 230.775442z" fill="#FFA1D5" /><path d="M518.485054 758.112766a182.776141 182.776141 0 0 0 80.721863-17.065932 139.940649 139.940649 0 0 1-1.023956-58.365491l-85.329664 1.023956-85.329665-1.023956a136.527463 136.527463 0 0 1-1.535933 59.730765 197.452843 197.452843 0 0 0 92.497355 15.700658z" fill="#FFCFAE" /><path d="M147.130356 361.671147s10.751538-199.159436 115.024387-294.558001S514.55989 8.918315 514.55989 8.918315s139.599331-35.155822 232.438005 34.131866c139.76999 104.614168 136.527463 318.962285 136.527463 318.962284z" fill="#FF556A" /><path d="M99.004425 440.003779a112.464497 108.880651 0 1 0 224.928995 0 112.464497 108.880651 0 1 0-224.928995 0Z" fill="#FFEDE1" /><path d="M708.087568 440.003779a109.904607 108.880651 0 1 0 219.809215 0 109.904607 108.880651 0 1 0-219.809215 0Z" fill="#FFEDE1" /><path d="M153.444751 440.003779a46.931315 45.395381 0 1 0 93.862631 0 46.931315 45.395381 0 1 0-93.862631 0Z" fill="#FFCFAE" /><path d="M779.593827 440.003779a46.931315 45.395381 0 1 0 93.86263 0 46.931315 45.395381 0 1 0-93.86263 0Z" fill="#FFCFAE" /><path d="M227.34024 274.634889s-85.329664 170.659328-21.161756 309.405363c86.524279 189.261195 529.043918 190.285151 617.27479-5.802418 61.266699-136.527463-32.254613-305.480198-32.254613-305.480197l-201.889985-42.664832a354.800744 354.800744 0 0 0-145.060429 0z" fill="#FFEDE1" /><path d="M487.937035 530.282563a25.42824 15.35934 0 1 0 50.85648 0 25.42824 15.35934 0 1 0-50.85648 0Z" fill="#FFCFAE" /><path d="M734.881083 546.153881a8.532966 8.532966 0 0 1-7.509011-4.607802l-8.532966-17.065933a8.532966 8.532966 0 1 1 15.18868-7.850329l8.532967 17.065933a8.532966 8.532966 0 0 1-3.754506 11.434175 8.362307 8.362307 0 0 1-3.925164 1.023956zM779.764486 546.153881a8.532966 8.532966 0 0 1-7.50901-4.607802l-8.532967-17.065933a8.532966 8.532966 0 1 1 15.18868-7.850329l8.532967 17.065933a8.532966 8.532966 0 0 1-3.754505 11.434175 8.362307 8.362307 0 0 1-3.925165 1.023956zM292.020126 546.153881a8.362307 8.362307 0 0 1-3.925165-1.023956 8.532966 8.532966 0 0 1-3.754505-11.434175l8.532966-17.065933a8.532966 8.532966 0 1 1 15.188681 7.850329l-8.532967 17.065933a8.532966 8.532966 0 0 1-7.50901 4.607802zM247.136722 546.153881a8.362307 8.362307 0 0 1-3.925164-1.023956 8.532966 8.532966 0 0 1-3.754505-11.434175l8.532966-17.065933a8.532966 8.532966 0 1 1 15.18868 7.850329l-8.532966 17.065933a8.532966 8.532966 0 0 1-7.509011 4.607802z" fill="#FF4545" /><path d="M779.252508 938.670336l-25.086921-69.629006A132.772957 132.772957 0 0 0 631.46153 781.322435c-4.437143 38.910327-55.8056 69.799665-119.46153 69.799665s-114.34175-30.718679-119.46153-69.799665a132.772957 132.772957 0 0 0-119.46153 87.548236L247.6487 938.670336a32.766591 32.766591 0 0 0 13.652747 39.080986c30.718679 18.772526 101.030322 46.248678 252.063828 46.248678s221.857127-27.476152 252.063828-46.589997a32.766591 32.766591 0 0 0 13.823405-38.739667z" fill="#FFA1D5" /><path d="M458.412971 587.794757c10.0689-11.263516 25.598899 2.218571 53.41637 2.218571s35.49714-20.649779 53.24571-8.532966-4.607802 57.170875-52.904392 59.048127c-45.566041 1.706593-73.212852-31.230657-53.757688-52.733732z" fill="#FF4545" /><path d="M484.509844 627.065545a9.727582 25.257581 87.7 1 0 50.474466-2.027264 9.727582 25.257581 87.7 1 0-50.474466 2.027264Z" fill="#FF9999" /><path d="M643.237023 443.758284l20.820439-18.943186a34.131866 34.131866 0 0 0-28.15879-15.359339 36.691756 36.691756 0 1 0 34.131866 40.104942zM398.682206 443.758284l20.820438-18.943186a34.131866 34.131866 0 0 0-28.158789-15.359339 36.691756 36.691756 0 1 0 34.131866 40.104942z" fill="#302B28" /><path d="M202.765297 330.781808H341.340672l34.131865-64.679885 34.131866 64.679885h288.755584l26.281536-41.982194L750.92306 330.781808h76.796697s70.482303-112.976475-330.567119-112.976475-294.387341 112.976475-294.387341 112.976475z" fill="#FF556A" /></svg>